<svg xmlns="http://www.w3.org/2000/svg" width="64" height="64" fill="none"><g clip-path="url(#a)"><path fill="#E0024E" d="M31.5 61.992C21.824 53.316 8 41.749 8 27.29 8 13.7 20.787 3 31.5 3S55 13.7 55 27.29c0 14.46-13.824 26.026-23.5 34.702Z"/><path fill="#E0024E" d="M31.596 41.416c8.476 0 15.347-6.728 15.347-15.03 0-8.3-6.871-15.029-15.347-15.029-8.476 0-15.347 6.73-15.347 15.03 0 8.3 6.871 15.03 15.347 15.03Z"/><path fill="#fff" d="M33.898 16.765h-4.604c-.848 0-1.535.673-1.535 1.503v19.538c0 .83.687 1.503 1.535 1.503h4.604c.848 0 1.535-.673 1.535-1.503V18.268c0-.83-.687-1.503-1.535-1.503Z"/><path fill="#fff" d="M41.572 24.28H21.62c-.847 0-1.534.674-1.534 1.504v4.509c0 .83.687 1.503 1.534 1.503h19.952c.847 0 1.534-.673 1.534-1.503v-4.51c0-.83-.687-1.502-1.534-1.502Z"/></g><defs><clipPath id="a"><path fill="#fff" d="M8 3h47v58.992H8z"/></clipPath></defs></svg>